<?xml version="1.0" encoding="UTF-8"?>
<!-- Generator: Adobe Illustrator 27.5.0, SVG Export Plug-In . SVG Version: 6.00 Build 0)  -->
<svg version="1.1" id="Layer_1" xmlns="http://www.w3.org/2000/svg" xmlns:xlink="http://www.w3.org/1999/xlink" x="0px" y="0px" viewBox="0 0 3000 2000" style="enable-background:new 0 0 3000 2000;" xml:space="preserve">
<g>
	<rect id="Background" style="fill:#FFFFFF;" width="3000" height="2000"/>
	<g>
		<g>
			<g>
				<rect x="1340.365" y="1268" style="fill:#D3DFFF;" width="310.563" height="456"/>
				<rect x="1340.365" y="1314.667" style="opacity:0.3;fill:#1F3C88;" width="310.564" height="86.667"/>
				<circle style="fill:#FFFFFF;" cx="1495.646" cy="1363" r="83"/>
				<g>
					<rect x="729.722" y="348.508" style="fill:#D3DFFF;" width="1531.847" height="1009.666"/>
					<rect x="781.157" y="386.736" style="fill:#FFFFFF;" width="1428.978" height="913.713"/>
				</g>
				<rect x="1173.333" y="1662.258" style="fill:#708CD5;" width="642.667" height="61.742"/>
			</g>
			<g>
				<g>
					<g>
						<path style="fill:#FFFFFF;stroke:#708CD5;stroke-width:4;stroke-miterlimit:10;" d="M1162.667,845.333l27.619-199.336        C1177.26,643.388,1163.793,642,1150,642c-112.666,0-204,91.334-204,204c0,112.666,91.334,204,204,204s204-91.334,204-204        c0-7.403-0.418-14.707-1.187-21.906L1162.667,845.333z"/>
						<path style="fill:#FFFFFF;stroke:#708CD5;stroke-width:4;stroke-miterlimit:10;" d="M1386.813,788.094        c-9.5-88.948-76.151-160.793-162.528-178.097l-27.619,199.336L1386.813,788.094z"/>
					</g>
					<g>
						<path style="fill:#708CD5;" d="M1096.395,916.419c0-8.816,5.381-14.419,13.001-14.419s12.925,5.527,12.925,14.419        c0,8.892-5.305,14.422-12.925,14.422S1096.395,925.238,1096.395,916.419z M1114.851,916.419c0-5.603-2.166-8.292-5.454-8.292        c-3.212,0-5.454,2.765-5.454,8.292c0,5.53,2.242,8.295,5.454,8.295C1112.685,924.714,1114.851,922.025,1114.851,916.419z         M1140.556,902.596h8.892l-35.716,52.304h-8.892L1140.556,902.596z M1131.962,941.077c0-8.816,5.378-14.422,12.925-14.422        c7.623,0,13.001,5.606,13.001,14.422s-5.378,14.422-13.001,14.422C1137.34,955.499,1131.962,949.893,1131.962,941.077z         M1150.342,941.077c0-5.53-2.166-8.296-5.454-8.296c-3.212,0-5.454,2.692-5.454,8.296c0,5.603,2.242,8.292,5.454,8.292        C1148.176,949.37,1150.342,946.607,1150.342,941.077z"/>
					</g>
				</g>
				<g>
					
						<rect x="1504.973" y="654.726" style="fill:#FFFFFF;stroke:#708CD5;stroke-width:4;stroke-miterlimit:10;" width="520.442" height="383.88"/>
					<g>
						<rect x="1556.194" y="900.072" style="fill:#D3DFFF;" width="34" height="62.928"/>
						<rect x="1620.194" y="823.158" style="fill:#D3DFFF;" width="34" height="139.842"/>
						<rect x="1684.194" y="750.477" style="fill:#D3DFFF;" width="34" height="212.523"/>
						<rect x="1748.194" y="805.352" style="fill:#D3DFFF;" width="34" height="157.648"/>
						<rect x="1812.194" y="792.357" style="fill:#D3DFFF;" width="34" height="170.643"/>
						<rect x="1876.194" y="795.139" style="fill:#D3DFFF;" width="34" height="167.861"/>
						<rect x="1940.194" y="721.185" style="fill:#D3DFFF;" width="34" height="241.814"/>
						<g>
							<polygon style="fill:#708CD5;" points="1572.499,941.324 1569.501,938.676 1637.664,861.491 1706.154,814.468          1765.957,867.293 1810.629,825.211 1813.371,828.122 1766.043,872.707 1705.846,819.532 1640.336,864.509        "/>
						</g>
					</g>
				</g>
				<g>
					<rect x="1222.035" y="442.271" style="fill:#708CD5;" width="560.555" height="63.188"/>
					<rect x="1034.313" y="568.596" style="fill:#D3DFFF;" width="932" height="8.771"/>
					<rect x="1034.313" y="542.596" style="fill:#D3DFFF;" width="932" height="8.771"/>
				</g>
				<g>
					<rect x="1034.313" y="1174.596" style="fill:#D3DFFF;" width="932" height="8.771"/>
					<rect x="1034.313" y="1201.263" style="fill:#D3DFFF;" width="932" height="8.771"/>
					<rect x="1034.313" y="1227.93" style="fill:#D3DFFF;" width="932" height="8.771"/>
				</g>
				<rect x="1040" y="1083.667" style="fill:#D3DFFF;" width="212" height="27.333"/>
				<rect x="1659.194" y="1083.667" style="fill:#D3DFFF;" width="212" height="27.333"/>
			</g>
		</g>
		<g>
			<g>
				<rect x="357.318" y="1178.457" style="fill:#1F3C88;" width="6.838" height="369.467"/>
				<path style="fill:#1F3C88;" d="M297.636,1227.861c38.708,11.251,58.962-3.761,68.468-10c3.31-2.173,3.768-6.679,1.107-10.245      c-9.276-12.429-30.82-35.191-62.695-42.918c-41.181-9.982-78.816,7.714-78.816,7.714S267.737,1219.17,297.636,1227.861z"/>
				<path style="fill:#708CD5;" d="M328.059,1280.719c43.29-26.066,50.724-56.867,54.8-70.661c1.42-4.804-1.447-8.922-6.457-9.422      c-17.462-1.745-56.222-10.145-90.751,12.584c-44.608,29.364-63.197,87.581-63.197,87.581S294.62,1300.853,328.059,1280.719z"/>
				<path style="fill:#1F3C88;" d="M338.549,1293.827c-9.975-43.164,10.143-67.358,18.606-78.652      c2.947-3.933,8.454-4.801,12.526-2.047c14.19,9.595,39.745,32.348,46.093,68.011c8.202,46.074-16.815,90.247-16.815,90.247      S346.253,1327.167,338.549,1293.827z"/>
				<path style="fill:#D3DFFF;" d="M309.089,1157.425c14.73,38.231,42.678,46.336,55.014,50.6c4.296,1.485,8.963-0.705,10.655-4.923      c5.896-14.703,13.678-45.375,0.057-75.982c-17.597-39.541-59.651-60.41-59.651-60.41S297.711,1127.895,309.089,1157.425z"/>
				<path style="fill:#708CD5;" d="M479.882,1186.224c-43.704,47.084-86.366,44.938-105.625,44.966      c-6.707,0.01-11.618-5.379-11.257-12.195c1.256-23.756,9.953-71.107,47.4-107.907c48.379-47.544,117.993-56.628,117.993-56.628      S513.639,1149.855,479.882,1186.224z"/>
				<path style="fill:#D3DFFF;" d="M458.621,1227.089c-39.074-32.036-73.985-23.714-89.811-20.778      c-5.512,1.023-9.185,6.213-8.431,11.767c2.628,19.359,12.955,56.995,46.197,81.528c42.947,31.696,100.757,28.475,100.757,28.475      S488.803,1251.835,458.621,1227.089z"/>
			</g>
			<g>
				<polygon style="fill:#FFFFFF;stroke:#708CD5;stroke-width:4;stroke-miterlimit:10;" points="432.414,1724.64 287.586,1724.64       258.13,1488.457 461.87,1488.457     "/>
				<polygon style="fill:#FFFFFF;stroke:#708CD5;stroke-width:4;stroke-miterlimit:10;" points="481.826,1527.704 238.174,1527.704       242.174,1488.457 477.826,1488.457     "/>
			</g>
			<path style="fill:#708CD5;" d="M442.913,1726.481H277.087c-22.066,0-39.954-17.888-39.954-39.954l0,0h245.734l0,0     C482.867,1708.593,464.979,1726.481,442.913,1726.481z"/>
		</g>
		<g>
			<path style="fill:#F9B384;" d="M2398.473,1146.667l11.683,16.95c28.011-1.764,53.011,18.813,51.989,27.089h-74.249     l-23.692-39.641L2398.473,1146.667z"/>
			<g>
				<path style="fill:#E28B6D;" d="M1902.18,862.114l-22.981-52.821l-50.586-8.774c0,0,0.621,13.404,36.811,18.059l7.236,9.547      L1902.18,862.114z"/>
				<path style="fill:#E28B6D;" d="M1885.496,854.934l-16.75-44.25l-39.75,16c0,0,6,8.5,32.5,4l7.367,5.277L1885.496,854.934z"/>
				<path style="fill:#E28B6D;" d="M1894.334,857.301l-25.749-39.694l-35.455,24.063c0,0,7.665,7.035,32.609-2.98l8.318,3.596      L1894.334,857.301z"/>
				<g>
					
						<rect x="1818.165" y="795.312" transform="matrix(0.9372 -0.3489 0.3489 0.9372 -161.9099 705.5164)" style="fill:#708CD5;" width="119.471" height="13.973"/>
					<polyline style="fill:#102048;" points="1819.481,816.59 1810.01,827.197 1824.355,829.685      "/>
				</g>
				<g>
					<path style="fill:#F9B384;" d="M1902.18,862.114c0,0-17.92-26.885-26.126-32.372c-8.206-5.487-18.534-9.294-21.854-16.821       c-3.321-7.528-9.044-0.379-9.079,2.513c-0.083,6.852,2.011,16.573,13.611,23.679c0,0,9.856,31.118,26.638,33.429       L1902.18,862.114z"/>
					<polygon style="fill:#F9B384;" points="1902.18,862.114 1918.206,875.05 1924.996,902.434 1903.746,913.684 1873.996,861.184             "/>
				</g>
			</g>
			<g>
				<path style="fill:#102048;" d="M2006.866,1724.027c40.408-6.982,61.602-22.006,83.313-36.813v36.813h6.781l9.641-65.292      c-21.436,15.453-49.179,30.456-72.096,34.532L2006.866,1724.027z"/>
				<path style="fill:#F9B384;" d="M2073.711,1425.65l-6.781,231.533l-32.423,36.084c22.917-4.076,50.66-19.079,72.096-34.532      l39.281-266.023L2073.711,1425.65z"/>
			</g>
			<g>
				<path style="fill:#F9B384;" d="M2217.394,1359.253l-47.188,39.294l119.79,246.629l-5.653,44.976      c18.073-18.433,33.132-40.569,43.996-61.372C2302.152,1537.588,2275,1443,2217.394,1359.253z"/>
				<path style="fill:#102048;" d="M2284.344,1690.151l-4.212,33.512c33.604-23.501,38.525-39.506,43.678-61.193l15.653,33.319      l6.138-2.884c-5.427-21.441-11.142-42.817-17.261-64.127C2317.476,1649.583,2302.417,1671.718,2284.344,1690.151z"/>
			</g>
			<path style="fill:#1F3C88;" d="M2256,1396c-66.68,26.68-129.8,15.56-182.28,29.64c-22.2-55.72-36.52-125.48-10.92-266.24     c1.96-10.72,4.68-21.28,8.12-31.64l21.64-65.68l0.52-1.64L2168,1037l40.36,27.32l0.68,2.08l0.84,2.48     c8.16,24.84,18.52,48.84,30.28,72.16C2283.48,1226.84,2285.4,1314.76,2256,1396z"/>
			<path style="fill:#EE6F57;" d="M2409.88,1149.56l-45.56,25.2l-124-193.76c-4.92,30.28-15.24,57.2-30.48,81     c-0.48,0.8-0.96,1.56-1.48,2.32c-44,12-77.44,12.92-115.28-3.88c-0.52-0.88-1.04-1.76-1.56-2.64     c-15.48-26.32-26.92-59.04-36.2-95.2l-43.56,27.16c-16.84,10.52-38.64,8.24-52.92-5.52l-79.36-76.4l31.48-39.24l88.16,61.52     l55.12-40.24c15.72-11.48,33.6-19.64,52.56-24.04l29.88-6.92l31-2.88l38.52,13.4c28.92,10.12,53.44,30.04,69.24,56.32     L2409.88,1149.56z"/>
			<g>
				<path style="fill:#102048;" d="M2222.417,714.874c-0.815,17.065-16.214,27.207-32.289,26.439s-21.767-14.34-26.304-30.811      c-5.091-18.479,9.81-28.376,25.903-28.63C2209.5,681.559,2223.232,697.81,2222.417,714.874z"/>
				<path style="fill:#F9B384;" d="M2180.6,809.24l-2.68,45.96c-1,17.4-15.72,30.76-33,29.92c-11.56-0.56-20.56-10.12-20.56-21.64      c0-0.36,0.04-0.76,0.04-1.12l0.04-0.56l1.52-32.56l19.32-7.08L2180.6,809.24z"/>
				<path style="fill:#102048;" d="M2168.68,825c0,0-13.44,27.16-44.24,36.8l1.52-32.56l19.32-7.08L2168.68,825z"/>
				<path style="fill:#F9B384;" d="M2189.8,765.52l-7.44,44.28c0,0-25.4,37.76-61.72,34.44c-14.96-1.36-21.92-10.84-24.92-21.48      c-2.32-8.32-2.24-17.4-1.68-23.84c0.48-5.4,1.24-9,1.24-9l-4.88-22.88l12.44-23.6l48.24-15.96L2189.8,765.52z"/>
				<path style="fill:#1F3C88;" d="M2191.265,787.584c3.545-8.317,8.17-14.277,8.312-35.759      c-1.055-30.547-27.564-54.075-63.687-46.14c-2.213,0.486-4.411,1.18-6.526,1.992c-51.485,19.768-51.479,57.792-36.461,72.376      c8.573-24.848,30.091-30.821,54.43-31.054c7.908,24.628,26,38.667,38.629,37.702L2191.265,787.584z"/>
				<path style="fill:#F9B384;" d="M2197.333,798c-1.973,8.249-8.302,15.651-13.731,14.898c-5.429-0.754-8.931-7.841-7.822-15.829      s6.409-13.853,11.839-13.099C2193.048,784.723,2199.682,788.18,2197.333,798z"/>
				<g>
					<path style="fill:#E28B6D;" d="M2182.662,799.762l-1.99-0.19c0.026-0.281,0.703-6.892,4.65-9.14       c1.828-1.04,3.995-0.985,6.437,0.164l-0.852,1.81c-1.846-0.869-3.349-0.946-4.595-0.235       C2183.776,793.613,2182.818,798.14,2182.662,799.762z"/>
				</g>
				<ellipse style="fill:#102048;" cx="2110.667" cy="788.289" rx="3" ry="4.789"/>
				<ellipse style="fill:#102048;" cx="2143" cy="786.417" rx="3" ry="5.25"/>
				<path style="fill:#102048;" d="M2127.397,786.005c-0.722,2.633-2.177,4.961-3.663,7.118c-1.482,2.171-3.128,4.195-4.368,6.289      c-0.604,1.039-1.121,2.105-1.219,3.079c-0.157,0.974,0.168,1.783,0.863,2.622c1.641,1.845,3.561,3.545,5.622,4.99l-0.438,0.925      c-2.564-0.945-4.827-2.458-6.823-4.33c-0.545-0.523-1.065-1.186-1.386-1.972c-0.337-0.783-0.439-1.666-0.376-2.473      c0.161-1.633,0.812-2.972,1.512-4.168c1.451-2.37,3.179-4.337,4.829-6.318c1.649-1.98,3.253-3.935,4.495-6.14L2127.397,786.005z      "/>
				<path style="fill:#102048;" d="M2116.327,819.179c1.813,0.258,3.709,0.259,5.507,0.029c1.808-0.238,3.564-0.686,5.249-1.353      c0.815-0.399,1.679-0.692,2.453-1.186c0.394-0.23,0.821-0.407,1.202-0.665c0.383-0.255,0.764-0.514,1.161-0.754      c0.405-0.229,0.769-0.52,1.139-0.805l1.142-0.83c0.744-0.584,1.452-1.218,2.254-1.788l0.796,0.679      c-0.536,0.843-1.122,1.665-1.751,2.457c-0.701,0.723-1.35,1.521-2.154,2.154c-1.533,1.359-3.345,2.411-5.261,3.214      c-1.946,0.737-4.023,1.166-6.101,1.157c-2.079-0.005-4.129-0.363-6.015-1.334L2116.327,819.179z"/>
				<path style="fill:#102048;" d="M2101.516,780.462c0.849-1.61,2.203-2.932,3.757-3.943c1.568-0.997,3.369-1.653,5.228-1.918      c1.858-0.269,3.78-0.141,5.561,0.409c1.777,0.545,3.427,1.482,4.666,2.815l-0.79,1.35c-1.625-0.331-3.106-0.602-4.576-0.712      c-1.465-0.109-2.898-0.087-4.322,0.092c-1.422,0.181-2.827,0.522-4.213,1.024c-1.4,0.485-2.747,1.164-4.177,1.959      L2101.516,780.462z"/>
				<path style="fill:#102048;" d="M2133.108,778.054c0.203-0.441,0.448-0.883,0.717-1.326c0.312-0.387,0.672-0.748,1.03-1.127      c0.39-0.312,0.81-0.591,1.231-0.887c0.429-0.252,0.883-0.448,1.336-0.667c1.838-0.733,3.76-0.971,5.621-0.941      c1.865,0.036,3.694,0.35,5.436,0.957c0.435,0.161,0.864,0.337,1.289,0.514c0.421,0.218,0.836,0.42,1.247,0.651      c0.802,0.522,1.615,1.035,2.259,1.941l-1.046,1.162c-1.387-0.394-3.015-0.644-4.582-0.845c-1.581-0.191-3.156-0.337-4.705-0.391      c-1.547-0.049-3.073-0.008-4.515,0.235c-1.455,0.235-2.776,0.682-4.033,1.617L2133.108,778.054z"/>
				<circle style="opacity:0.4;fill:#EE6F57;" cx="2156.75" cy="804.5" r="12"/>
				<path style="opacity:0.4;fill:#EE6F57;" d="M2108,810.76c0,6.6-5.36,12-12,12h-0.28c-2.32-8.32-2.24-17.4-1.68-23.84      c0.64-0.12,1.28-0.16,1.96-0.16C2102.64,798.76,2108,804.12,2108,810.76z"/>
			</g>
			<path style="opacity:0.6;fill:#102048;" d="M2209.04,1066.4c-17.023,34.127-91.439,36.428-116.48-4.32l0.52-1.64     c37.84,16.8,71.28,15.88,115.28,3.88L2209.04,1066.4z"/>
			<g>
				<path style="fill:#6F3428;" d="M2063.973,997.298c-7.608-16.376-12.232-39.45-14.137-70.54l2.994-0.184      c1.881,30.709,6.416,53.43,13.863,69.46L2063.973,997.298z"/>
			</g>
			<g>
				<path style="fill:#6F3428;" d="M2234.788,1011.699l-2.91-0.732c0.44-1.748,0.889-3.477,1.336-5.204      c4.272-16.482,8.689-33.525,5.957-69.649l2.992-0.227c2.77,36.621-1.711,53.91-6.045,70.629      C2235.672,1008.236,2235.227,1009.958,2234.788,1011.699z"/>
			</g>
		</g>
		<g>
			<path style="fill:#6F3428;" d="M999.5,924.5c5.401-12.17,3.111-27.244-21.5-50.75L976,905L999.5,924.5z"/>
			<g>
				<path style="fill:#F9B384;" d="M1056.51,859.153c-1.113,0.479-48.502,34.153-50.683,34.991      c-1.131,0.43-19.811-11.654-23.281-17.161c-0.649-1.035,6.55-57.596,12.851-54.89c8.066,3.464,3.947,19.194,3.669,24.244      c1.491-0.107,0.8-0.156,2.324-0.265c0.099-0.007,0.183,0.003,0.299,0.012c7.026-11.865,14.069-23.748,21.095-35.614      c0.409-0.695,0.933-1.174,1.51-1.472c2.075-1.071,4.379,0.601,4.541,2.894c0.486,6.892-6.413,21.687-9.125,27.46      c7.542-6.346,18.634-17.772,26.434-23.82c3.626-2.789,7.183,1.535,4.509,5.798c-2.51,4.001-16.126,19.787-21.973,25.696      c6.345-2.884,24.888-15.409,25.879-14.548c2.564,0.215,4.675,3.308,2.298,5.707c-7.677,7.77-13.642,13.862-22.623,19.879      c7.717-1.069,12.926-2.432,20.259-5.587C1058.702,850.661,1060.701,857.355,1056.51,859.153z"/>
				<polygon style="fill:#F9B384;" points="985.89,863.048 968.5,886.787 978.621,941.167 1024.259,878.598     "/>
				<g>
					<path style="fill:#E28B6D;" d="M1005.77,867.251l-2.034-0.86c3.742-8.846-3.255-17.363-3.326-17.448l1.693-1.417       C1002.429,847.915,1010.032,857.176,1005.77,867.251z"/>
				</g>
				<g>
					<path style="fill:#E28B6D;" d="M1031.329,863.544c-3.736-9.518-8.962-15.64-15.978-18.714l0.887-2.023       c7.473,3.275,13.241,9.981,17.146,19.93L1031.329,863.544z"/>
				</g>
			</g>
			<path style="fill:#EE6F57;" d="M774.167,833.279c12.656-1.969,32.748-0.932,52.444,2.31     c24.815,4.085,46.458,19.179,59.611,40.614l34.111,55.076L978,873.75c2.976,19.93,10.257,36.764,21.5,50.75l-64.164,67.517     c-10.886,9.816-27.335,10.129-38.586,0.733L852,959.613l-50-15.667L774.167,833.279z"/>
			<g>
				<path style="fill:#E28B6D;" d="M738.65,1635.774l28.213-43.51L731,1561.946l-26.38,40.265      C713.527,1614.245,725.027,1625.669,738.65,1635.774z"/>
				<path style="fill:#102048;" d="M738.65,1635.774c-13.623-10.105-25.123-21.529-34.03-33.564L674,1648.946l83.593,74.654      c5.407-23.654-10.373-62.237-23.593-80.654L738.65,1635.774z"/>
			</g>
			<g>
				<path style="fill:#1F3C88;" d="M855.333,1723.279c-16-18.667-54-31.333-75.333-36l-0.427-10.24      c-13.338-0.08-27.304-1.637-39.691-4.916l2.784,51.157H855.333z"/>
				<path style="fill:#F9B384;" d="M779.573,1677.039l-2.24-53.76l-40,2l2.549,46.843      C752.269,1675.402,766.235,1676.958,779.573,1677.039z"/>
			</g>
			<g>
				<polygon style="fill:none;" points="784,1382.946 783.915,1381.335 779.085,1394.336     "/>
				<path style="fill:#1F3C88;" d="M884.383,1271.707L857,1085.946l-100,5l20.679,172.638l0.012,0.224l22.971,52.314      c2.571,5.913,2.768,12.588,0.551,18.642l-23.534,63.359l-0.003-0.521L699,1579.946l66,51l102.504-233.613      C884.817,1357.874,890.667,1314.336,884.383,1271.707z"/>
			</g>
			<path style="fill:#708CD5;" d="M696,1083.946l-11.054,69.643c-5.937,37.4-6.797,75.431-2.556,113.061l42.944,385.963h70     L788.667,1192l76-52.667L856,1080L696,1083.946z"/>
			<path style="fill:#EE6F57;" d="M676,1110.6c0,0-12-8.64-3-23.64c0.28-0.48,0.56-1.08,0.8-1.8c2.16-6.2,2.44-20.6,1.76-37.72     c-1.64-40.52-8.56-96.48-8.56-96.48l17-76l35.32-33.68L806,840.6l43.32,58l11.36,133.36c0,0,2,22,12.64,44.64     C892.84,1118.04,692.64,1126.52,676,1110.6z"/>
			<g>
				
					<rect x="839.5" y="879.292" transform="matrix(0.9988 -0.0494 0.0494 0.9988 -44.1113 42.6966)" style="fill:#6F3428;" width="3" height="67.415"/>
			</g>
			<g>
				<polygon style="fill:#F6F5F5;" points="878.279,1042.649 777.906,1056.769 778.774,917.284 879.147,903.164     "/>
				<g>
					<g>
						<polygon style="fill:#708CD5;" points="797.284,945.164 796.691,940.742 865.105,931.026 865.698,935.449       "/>
					</g>
					<g>
						<polygon style="fill:#708CD5;" points="797.197,964.145 796.604,959.723 865.018,950.007 865.611,954.43       "/>
					</g>
					<g>
						<polygon style="fill:#708CD5;" points="797.647,984.247 797.053,979.825 865.469,970.107 866.063,974.53       "/>
					</g>
					<g>
						<polygon style="fill:#D3DFFF;" points="797.547,1006.018 796.953,1001.595 865.37,991.88 865.963,996.302       "/>
					</g>
					<g>
						<polygon style="fill:#D3DFFF;" points="797.456,1026.115 796.862,1021.693 865.276,1011.975 865.87,1016.398       "/>
					</g>
				</g>
			</g>
			<path style="fill:#6F3428;" d="M747.5,1046.946c0,0,26.5-23.113,11.833-58.946L731,1019.928L747.5,1046.946z"/>
			<path style="opacity:0.3;fill:#6F3428;" d="M688.238,1016.274c3.766-2.326,12.136-0.179,14.249-5.148     c8.375-19.697-0.954-62.275-11.006-84.514L688.238,1016.274z"/>
			<path style="opacity:0.3;fill:#6F3428;" d="M747.52,1046.96c0,0-13.96,31.2-73.72,38.2c2.16-6.2,2.44-20.6,1.76-37.72     L747.52,1046.96z"/>
			<g>
				<g>
					<polygon style="fill:#F9B384;" points="776.965,982.62 730.557,1000.477 732.345,1041.5 788.075,1017.986      "/>
					<path style="fill:#F9B384;" d="M829.535,992.461c-1.653,0.35-3.343,0.511-5.016,0.76c2.26,3.005,1.162,8.781-3.853,9.587       c-0.377,0.059-0.76,0.104-1.137,0.163c0.456,1.78,0.351,3.213-0.897,4.844c-0.842,1.1-8.014,5.913-10.93,7.302       c-43.815,20.864-51.253-3.077-49.135-11.35c1.645-6.387,8.473-13.754,14.042-19.588c17.792-15.017,28.943-21.339,46.901-24.312       c7.22-1.199,6.406,5.732,0.444,9.407c-2.746,1.693-5.866,3.196-8.878,4.156c-0.12,0.135-0.259,0.262-0.421,0.366       c-4.772,3.401-9.282,7.107-13.515,11.112c5.737-0.161,36.529-3.673,39.685,0.917       C837.922,987.422,833.682,991.582,829.535,992.461z"/>
				</g>
				<g>
					
						<rect x="799.322" y="993.198" transform="matrix(0.9963 -0.0861 0.0861 0.9963 -82.6249 73.6299)" style="fill:#E28B6D;" width="25.244" height="2.222"/>
				</g>
				<g>
					
						<rect x="799.26" y="1003.35" transform="matrix(0.9892 -0.1464 0.1464 0.9892 -138.3362 129.3307)" style="fill:#E28B6D;" width="20.378" height="2.221"/>
				</g>
			</g>
			<path style="fill:#EE6F57;" d="M744.667,829.279c-24.216,1.954-45.919,9.638-64.19,20.081     c-29.18,16.679-47.302,47.593-48.142,81.194c-0.711,28.434-1.671,66.83-2.43,97.212c-0.627,25.081,22.584,43.996,47.026,38.336     l70.57-19.156c-2.314-18.344,3.157-38.432,13-59.5l-73,11.5l1.833-71.667l68-13.333L744.667,829.279z"/>
			<g>
				<path style="fill:#6F3428;" d="M668.565,1006.502l-1.168-2.764c21.969-9.281,61.21-14.379,92.943-17.784l0.32,2.982      C729.132,992.32,690.171,997.373,668.565,1006.502z"/>
			</g>
			<g>
				<path style="fill:#6F3428;" d="M764.969,876.244c-9.476,0-18.706-3.194-25.918-9.082l1.897-2.324      c7.866,6.421,18.337,9.381,28.732,8.122c9.484-1.15,17.577-5.599,22.787-12.527l2.397,1.803      c-5.705,7.587-14.521,12.453-24.823,13.703C768.35,876.143,766.655,876.244,764.969,876.244z"/>
			</g>
			<g>
				<path style="fill:#F9B384;" d="M786.68,790.25v35.95c0,1.545-0.123,3.046-0.369,4.505c-2.054,13.557-13.31,23.895-26.866,23.895      c-15.035,0-27.194-12.698-27.194-28.4v-35.95H786.68z"/>
				<path style="fill:#102048;" d="M786.68,803.04v25.08c0,1.44-0.12,2.84-0.36,4.2C754.2,833,744,805.75,744,805.75L786.68,803.04z      "/>
				<path style="fill:#F9B384;" d="M809.16,789.32c-0.88,9.32-4.48,18.88-13.8,25.76c-13.36,9.92-42.72,12.36-70.64-33.24L724,718.4      l44.32-7.32l36.6,15.4l-1.2,31c0,0,1.88,4.24,3.48,10.64C808.64,773.96,809.88,781.56,809.16,789.32z"/>
				<path style="fill:#102048;" d="M732.543,774.631c-2.989-17.853,4.288-32.191,17.161-39.046      c18.812,6.516,46.976,9.126,61.001-3.894c15.024-11.262,11.103-50.104-22.281-49.057c-12.318,1.707-17.24,8.305-18.492,17.328      c-56.121-33.524-96.51,46.724-50.219,72.183L732.543,774.631z"/>
				<path style="fill:#F9B384;" d="M739.9,781.615c0.471,9.15-6.631,14.377-13.952,14.746c-7.321,0.368-16.987-9.148-17.458-18.298      c-0.471-9.15,5.771-13.524,13.093-13.892C728.904,763.803,739.429,772.466,739.9,781.615z"/>
				<path style="fill:#E28B6D;" d="M729.792,779.393c-0.981-1.311-1.965-2.625-3.006-3.786c-1.045-1.152-2.164-2.198-3.346-2.774      c-1.176-0.589-2.317-0.661-3.601-0.222c-1.272,0.484-2.568,1.396-3.881,2.421l-0.917-0.731c0.766-1.585,1.937-3.059,3.674-4.073      c0.879-0.488,1.93-0.794,3.014-0.814c1.083,0.005,2.155,0.279,3.056,0.754c1.814,0.956,3.083,2.393,4.046,3.899      c0.963,1.521,1.664,3.126,2.043,4.874L729.792,779.393z"/>
				<path style="fill:#102048;" d="M791.714,761.839c0.194,2.594,1.572,4.604,3.079,4.489c1.506-0.116,2.57-2.312,2.376-4.907      c-0.194-2.594-1.572-4.604-3.078-4.489C792.584,757.047,791.52,759.244,791.714,761.839z"/>
				<path style="fill:#102048;" d="M762.689,764.494c0.194,2.594,1.572,4.604,3.078,4.489c1.506-0.116,2.57-2.312,2.376-4.907      c-0.194-2.594-1.572-4.604-3.078-4.489S762.495,761.899,762.689,764.494z"/>
				<path style="fill:#102048;" d="M780.346,765.229c1.301,1.868,2.896,3.486,4.534,5.133c1.639,1.648,3.345,3.283,4.836,5.323      c0.721,1.033,1.417,2.206,1.671,3.709c0.107,0.745,0.057,1.57-0.207,2.316c-0.255,0.744-0.71,1.38-1.171,1.877      c-1.702,1.806-3.663,3.294-5.936,4.284l-0.502-0.892c1.74-1.451,3.351-3.104,4.701-4.862c0.574-0.799,0.793-1.487,0.598-2.31      c-0.139-0.828-0.672-1.737-1.286-2.617c-1.254-1.778-2.884-3.477-4.371-5.328c-1.49-1.838-2.969-3.841-3.786-6.181      L780.346,765.229z"/>
				<path style="fill:#102048;" d="M792.266,797.472c-1.545,1.173-3.33,1.814-5.198,2.147c-1.865,0.335-3.8,0.282-5.666-0.075      c-1.849-0.417-3.648-1.071-5.238-2.055c-0.823-0.441-1.529-1.06-2.27-1.602c-0.688-0.615-1.34-1.266-1.947-1.945l0.65-0.79      c0.815,0.371,1.553,0.82,2.315,1.214l1.156,0.55c0.376,0.195,0.749,0.391,1.148,0.529c0.393,0.149,0.774,0.319,1.157,0.484      c0.383,0.164,0.79,0.256,1.178,0.398c0.768,0.317,1.585,0.439,2.374,0.666c1.605,0.334,3.241,0.46,4.891,0.407      c1.641-0.06,3.338-0.334,4.929-0.809L792.266,797.472z"/>
				<path style="fill:#102048;" d="M798.89,753.696c-1.269-0.424-2.392-0.774-3.513-0.941c-1.109-0.186-2.186-0.23-3.23-0.128      c-1.044,0.106-2.046,0.349-3.026,0.737c-0.984,0.395-1.925,0.948-2.953,1.76l-1.384-0.727c0.215-1.564,1.183-3.02,2.479-4.026      c1.297-1.022,2.92-1.596,4.538-1.719c3.244-0.273,6.528,1.265,8.104,3.855L798.89,753.696z"/>
				<path style="fill:#102048;" d="M774.407,756.616c-1.595-0.546-3.044-0.99-4.525-1.187c-1.467-0.232-2.948-0.193-4.428-0.047      c-1.483,0.159-2.974,0.467-4.475,0.865c-1.489,0.406-3.034,0.898-4.446,1.507l-1.122-1.089c1.069-1.736,2.619-2.814,4.263-3.691      c1.658-0.856,3.495-1.393,5.397-1.565c1.895-0.163,3.876,0.005,5.691,0.701c1.806,0.696,3.429,1.807,4.589,3.259      L774.407,756.616z"/>
				<path style="opacity:0.4;fill:#EE6F57;" d="M744.794,784.193c0.057,5.946,5.001,10.711,11.043,10.642      c6.042-0.069,10.894-4.946,10.837-10.892c-0.057-5.946-5.001-10.711-11.043-10.642      C749.589,773.37,744.737,778.247,744.794,784.193z"/>
				<path style="opacity:0.4;fill:#EE6F57;" d="M809.16,789.32c-5.72-0.28-10.32-4.88-10.36-10.64c-0.08-5.12,3.56-9.44,8.4-10.56      C808.64,773.96,809.88,781.56,809.16,789.32z"/>
			</g>
		</g>
		<g>
			<g>
				
					<line style="fill:none;stroke:#102048;stroke-width:4;stroke-miterlimit:10;" x1="2606" y1="1197.916" x2="2606" y2="1717.916"/>
				<rect x="2377.333" y="1188.583" style="fill:#D3DFFF;" width="457.333" height="23.802"/>
				<path style="fill:#708CD5;" d="M2702.758,1726.4h-193.516l0,0c0-17.107,13.867-30.974,30.974-30.974h131.568      C2688.89,1695.426,2702.758,1709.293,2702.758,1726.4L2702.758,1726.4z"/>
			</g>
			<g>
				<rect x="2508.333" y="1168.583" style="fill:#102048;" width="136.667" height="20"/>
				<polygon style="fill:#708CD5;" points="2709.915,1188.583 2554.007,1188.583 2618.071,1036.417 2773.978,1036.417     "/>
			</g>
		</g>
		<line style="fill:none;stroke:#102048;stroke-width:4.8;stroke-miterlimit:10;" x1="0" y1="1724" x2="3000" y2="1724"/>
		<g>
			<path style="fill:#FFFFFF;stroke:#708CD5;stroke-width:4;stroke-miterlimit:10;" d="M2512.466,553.882     c-69.417,0-125.691,56.274-125.691,125.691c0,19.883,4.634,38.678,12.854,55.391l-37.521,40.301l54.113-14.881     c23.057,27.432,57.607,44.881,96.245,44.881c69.417,0,125.691-56.274,125.691-125.691S2581.883,553.882,2512.466,553.882z"/>
			<g>
				
					<ellipse transform="matrix(0.7071 -0.7071 0.7071 0.7071 237.8386 1933.3396)" style="fill:#708CD5;" cx="2452.667" cy="679.573" rx="17.333" ry="17.333"/>
				
					<ellipse transform="matrix(0.1602 -0.9871 0.9871 0.1602 1438.8245 3050.2815)" style="fill:#D3DFFF;" cx="2512" cy="679.573" rx="17.333" ry="17.333"/>
				
					<ellipse transform="matrix(0.2298 -0.9732 0.9732 0.2298 1319.1694 3025.9875)" style="fill:#D3DFFF;" cx="2571.333" cy="679.573" rx="17.333" ry="17.333"/>
			</g>
		</g>
		<g>
			<path style="fill:#FFFFFF;stroke:#708CD5;stroke-width:4;stroke-miterlimit:10;" d="M440.921,521.676     c69.418,0,125.691,56.274,125.691,125.691c0,19.883-4.634,38.678-12.854,55.391l37.521,40.301l-54.113-14.881     c-23.057,27.432-57.607,44.881-96.245,44.881c-69.417,0-125.691-56.274-125.691-125.691S371.504,521.676,440.921,521.676z"/>
			<g>
				<circle style="fill:#708CD5;" cx="500" cy="644" r="17.333"/>
				
					<ellipse transform="matrix(0.0151 -0.9999 0.9999 0.0151 -209.915 1074.8905)" style="fill:#D3DFFF;" cx="440.667" cy="644" rx="17.333" ry="17.333"/>
				
					<ellipse transform="matrix(0.0051 -1 1 0.0051 -264.6179 1022.0186)" style="fill:#D3DFFF;" cx="381.333" cy="644" rx="17.333" ry="17.333"/>
			</g>
		</g>
	</g>
</g>
</svg>